<svg width="475" height="128" viewBox="0 0 475 128" fill="none" xmlns="http://www.w3.org/2000/svg">
<mask id="path-1-inside-1_119_2" fill="white">
<path fill-rule="evenodd" clip-rule="evenodd" d="M58.8914 78.5406C74.7736 72.5576 86 57.8725 86 40.7054C86 18.2244 66.7482 0 43 0C19.2518 0 0 18.2244 0 40.7054C0 57.8726 11.2265 72.5577 27.1088 78.5407V96.9999H58.8914V78.5406Z"/>
</mask>
<path d="M58.8914 78.5406L57.4813 74.7974L54.8914 75.773V78.5406H58.8914ZM27.1088 78.5407H31.1088V75.7731L28.5189 74.7975L27.1088 78.5407ZM27.1088 96.9999H23.1088V101H27.1088V96.9999ZM58.8914 96.9999V101H62.8914V96.9999H58.8914ZM82 40.7054C82 56.0466 71.9613 69.3426 57.4813 74.7974L60.3016 82.2838C77.586 75.7725 90 59.6985 90 40.7054H82ZM43 4C64.7486 4 82 20.6374 82 40.7054H90C90 15.8114 68.7479 -4 43 -4V4ZM4 40.7054C4 20.6374 21.2514 4 43 4V-4C17.2521 -4 -4 15.8114 -4 40.7054H4ZM28.5189 74.7975C14.0388 69.3428 4 56.0467 4 40.7054H-4C-4 59.6986 8.41416 75.7727 25.6987 82.2839L28.5189 74.7975ZM31.1088 96.9999V78.5407H23.1088V96.9999H31.1088ZM58.8914 92.9999H27.1088V101H58.8914V92.9999ZM54.8914 78.5406V96.9999H62.8914V78.5406H54.8914Z" fill="#3F3D3D" mask="url(#path-1-inside-1_119_2)"/>
<rect x="27.5" y="96.5" width="31" height="4" fill="#4092C0" stroke="black"/>
<rect x="27.5" y="101.5" width="31" height="5" fill="#4092C0" stroke="black"/>
<rect x="27.5" y="107.5" width="31" height="4" fill="#4092C0" stroke="black"/>
<path d="M33.2122 48.145L21.1065 56.8435L32.9991 65.8311" stroke="#3F3D3D" stroke-width="4" stroke-linecap="square"/>
<path d="M51 65.3144L64.5538 59.1093L54.614 48.0002" stroke="#3F3D3D" stroke-width="4" stroke-linecap="square"/>
<path d="M101.102 30.9473H116.482C126.411 30.9473 133.117 31.403 136.6 32.3145C140.115 33.2259 142.785 34.7233 144.607 36.8066C146.43 38.89 147.57 41.2174 148.025 43.7891C148.481 46.3281 148.709 51.3411 148.709 58.8281V86.5137C148.709 93.61 148.367 98.3626 147.684 100.771C147.033 103.148 145.877 105.02 144.217 106.387C142.557 107.721 140.506 108.665 138.064 109.219C135.623 109.74 131.945 110 127.029 110H101.102V30.9473ZM121.658 44.4727V96.4746C124.62 96.4746 126.443 95.8887 127.127 94.7168C127.811 93.5124 128.152 90.2734 128.152 85V54.2871C128.152 50.7064 128.038 48.4115 127.811 47.4023C127.583 46.3932 127.062 45.6608 126.248 45.2051C125.434 44.7168 123.904 44.4727 121.658 44.4727ZM181.932 30.9473V110H161.375V30.9473H181.932ZM241.082 30.9473V110H223.064L212.371 74.0625V110H195.184V30.9473H212.371L223.895 66.543V30.9473H241.082Z" fill="#4092C0"/>
<path d="M303.357 30.9473L291.59 66.6406L304.48 110H283.24L274.939 76.1133V110H254.383V30.9473H274.939V61.6602L284.07 30.9473H303.357ZM313.094 30.9473H347.371V46.7676H333.65V61.7578H346.492V76.7969H333.65V94.1797H348.738V110H313.094V30.9473ZM359.695 30.9473H374.246C383.947 30.9473 390.506 31.3216 393.924 32.0703C397.374 32.819 400.174 34.7396 402.322 37.832C404.503 40.8919 405.594 45.791 405.594 52.5293C405.594 58.6816 404.829 62.8158 403.299 64.9316C401.769 67.0475 398.758 68.3171 394.266 68.7402C398.335 69.7493 401.069 71.1003 402.469 72.793C403.868 74.4857 404.731 76.0482 405.057 77.4805C405.415 78.8802 405.594 82.7702 405.594 89.1504V110H386.502V83.7305C386.502 79.4987 386.16 76.8783 385.477 75.8691C384.826 74.86 383.084 74.3555 380.252 74.3555V110H359.695V30.9473ZM380.252 44.4727V62.0508C382.563 62.0508 384.174 61.7415 385.086 61.123C386.03 60.472 386.502 58.4049 386.502 54.9219V50.5762C386.502 48.0697 386.046 46.4258 385.135 45.6445C384.256 44.8633 382.628 44.4727 380.252 44.4727ZM467.576 30.9473L455.809 66.6406L468.699 110H447.459L439.158 76.1133V110H418.602V30.9473H439.158V61.6602L448.289 30.9473H467.576Z" fill="black"/>
<path d="M42 96V55" stroke="black" stroke-width="4"/>
</svg>
