<svg width="234" height="56" viewBox="0 0 234 56" fill="none" xmlns="http://www.w3.org/2000/svg">
<mask id="path-1-inside-1_11_2673" fill="white">
<path fill-rule="evenodd" clip-rule="evenodd" d="M29.4017 39.2703C37.331 36.2788 42.9358 28.9363 42.9358 20.3527C42.9358 9.1122 33.3243 0 21.4679 0C9.61152 0 0 9.1122 0 20.3527C0 28.9363 5.60484 36.2788 13.5341 39.2703V48.4999H29.4017V39.2703Z"/>
</mask>
<path d="M29.4017 39.2703L27.9898 35.5278L25.4017 36.5042V39.2703H29.4017ZM13.5341 39.2703H17.5341V36.5042L14.9461 35.5278L13.5341 39.2703ZM13.5341 48.4999H9.53414V52.4999H13.5341V48.4999ZM29.4017 48.4999V52.4999H33.4017V48.4999H29.4017ZM38.9358 20.3527C38.9358 27.114 34.5148 33.0661 27.9898 35.5278L30.8137 43.0128C40.1472 39.4916 46.9358 30.7586 46.9358 20.3527H38.9358ZM21.4679 4C31.3189 4 38.9358 11.5197 38.9358 20.3527H46.9358C46.9358 6.70468 35.3297 -4 21.4679 -4V4ZM4 20.3527C4 11.5197 11.6169 4 21.4679 4V-4C7.60612 -4 -4 6.70468 -4 20.3527H4ZM14.9461 35.5278C8.42103 33.0661 4 27.114 4 20.3527H-4C-4 30.7586 2.78866 39.4916 12.1222 43.0128L14.9461 35.5278ZM17.5341 48.4999V39.2703H9.53414V48.4999H17.5341ZM29.4017 44.4999H13.5341V52.4999H29.4017V44.4999ZM25.4017 39.2703V48.4999H33.4017V39.2703H25.4017Z" fill="#353434" mask="url(#path-1-inside-1_11_2673)"/>
<rect x="13.9799" y="48.5" width="14.9761" height="1.5" fill="#4092C0" stroke="black"/>
<rect x="13.9799" y="51" width="14.9761" height="2" fill="#4092C0" stroke="black"/>
<rect x="13.9799" y="54" width="14.9761" height="1.5" fill="#4092C0" stroke="black"/>
<path d="M16.5813 24.0725L10.5374 28.4217L16.4749 32.9155" stroke="#3F3D3D" stroke-width="4" stroke-linecap="square"/>
<path d="M25.462 32.6572L32.2288 29.5546L27.2663 24.0001" stroke="#3F3D3D" stroke-width="4" stroke-linecap="square"/>
<path d="M50.4753 15.4736H58.1543C63.1111 15.4736 66.4589 15.7015 68.1979 16.1572C69.9531 16.613 71.2857 17.3617 72.1958 18.4033C73.1059 19.445 73.6747 20.6087 73.9023 21.8945C74.1298 23.1641 74.2435 25.6706 74.2435 29.4141V43.2568C74.2435 46.805 74.0729 49.1813 73.7316 50.3857C73.4066 51.5739 72.8296 52.5098 72.0008 53.1934C71.172 53.8607 70.1481 54.3327 68.9292 54.6094C67.7103 54.8698 65.8739 55 63.4199 55H50.4753V15.4736ZM60.7383 22.2363V48.2373C62.2172 48.2373 63.1273 47.9443 63.4686 47.3584C63.8099 46.7562 63.9806 45.1367 63.9806 42.5V27.1436C63.9806 25.3532 63.9237 24.2057 63.8099 23.7012C63.6961 23.1966 63.4361 22.8304 63.0298 22.6025C62.6235 22.3584 61.8597 22.2363 60.7383 22.2363Z" fill="#4092C0"/>
<path d="M90.8301 15.4736V55H80.5671V15.4736H90.8301Z" fill="#4092C0"/>
<path d="M120.361 15.4736V55H111.366L106.027 37.0312V55H97.4462V15.4736H106.027L111.78 33.2715V15.4736H120.361Z" fill="#4092C0"/>
<path d="M151.452 15.4736L145.577 33.3203L152.013 55H141.409L137.265 38.0566V55H127.002V15.4736H137.265V30.8301L141.823 15.4736H151.452Z" fill="#353434"/>
<path d="M156.313 15.4736H173.426V23.3838H166.576V30.8789H172.988V38.3984H166.576V47.0898H174.109V55H156.313V15.4736Z" fill="#353434"/>
<path d="M179.579 15.4736H186.844C191.687 15.4736 194.962 15.6608 196.668 16.0352C198.391 16.4095 199.788 17.3698 200.861 18.916C201.95 20.446 202.494 22.8955 202.494 26.2646C202.494 29.3408 202.112 31.4079 201.349 32.4658C200.585 33.5238 199.081 34.1585 196.839 34.3701C198.87 34.8747 200.235 35.5501 200.934 36.3965C201.633 37.2428 202.064 38.0241 202.226 38.7402C202.405 39.4401 202.494 41.3851 202.494 44.5752V55H192.963V41.8652C192.963 39.7493 192.792 38.4391 192.451 37.9346C192.126 37.43 191.256 37.1777 189.842 37.1777V55H179.579V15.4736ZM189.842 22.2363V31.0254C190.996 31.0254 191.801 30.8708 192.256 30.5615C192.727 30.236 192.963 29.2025 192.963 27.4609V25.2881C192.963 24.0348 192.735 23.2129 192.28 22.8223C191.841 22.4316 191.029 22.2363 189.842 22.2363Z" fill="#353434"/>
<path d="M233.439 15.4736L227.564 33.3203L234 55H223.396L219.251 38.0566V55H208.989V15.4736H219.251V30.8301L223.81 15.4736H233.439Z" fill="#353434"/>
<path d="M20.9686 48V27.5" stroke="black" stroke-width="4"/>
</svg>
